<?xml version="1.0" encoding="UTF-8"?>
<svg width="50px" height="50px" viewBox="0 0 50 50" version="1.1" xmlns="http://www.w3.org/2000/svg" xmlns:xlink="http://www.w3.org/1999/xlink">
    <!-- Generator: Sketch 45.2 (43514) - http://www.bohemiancoding.com/sketch -->
    <title>微信支付 copy 5</title>
    <desc>Created with Sketch.</desc>
    <defs></defs>
    <g id="Page-1" stroke="none" stroke-width="1" fill="none" fill-rule="evenodd">
        <g id="选择记账方式-copy-7" transform="translate(-47.000000, -952.000000)" fill-rule="nonzero" fill="#00C901">
            <g id="微信支付-copy-5" transform="translate(47.000000, 952.000000)">
                <path d="M37.6982301,0 L11.5994443,0 C5.19291304,0 0,5.19291304 0,11.5994443 L0,37.6982301 C0,44.1047614 5.19291304,49.2976744 11.5994443,49.2976744 L37.6982301,49.2976744 C44.1047614,49.2976744 49.2976744,44.1047614 49.2976744,37.6982301 L49.2976744,11.5994443 C49.2976744,5.19291304 44.1047614,0 37.6982301,0 Z M24.6488372,37.7975476 C22.8110546,37.7975476 21.0413932,37.5416234 19.3855883,37.0704069 C18.8957612,37.1589166 18.4174231,37.3021548 17.9595665,37.4974288 L14.7298466,39.5244105 C13.7729229,40.1645581 13.4618758,39.9231247 13.7968015,38.8001583 L14.5145545,36.2664312 C14.5637187,35.765987 14.5192141,35.2607632 14.3833187,34.7766208 C10.486636,32.1768906 7.97462098,28.1352034 7.97462098,23.6114197 C7.97462098,15.7977383 15.464979,9.42456957 24.6488372,9.42456957 C30.2506706,9.42456957 35.2224663,11.7959129 38.248448,15.4185698 L22.706634,22.8001744 C21.6351317,23.4446549 20.5636776,23.5802235 19.4921753,22.5972067 L17.014245,20.3679312 C15.8825649,20.0307909 15.480914,20.3911357 15.8086184,21.4488212 L18.4873501,28.0018012 C19.088358,28.9848662 19.9778826,29.3140148 21.5010555,28.2040469 L39.5301876,17.2237601 C40.6756364,19.144877 41.3223313,21.3154671 41.3223313,23.6106975 C41.3230535,31.4251011 33.8326955,37.7975476 24.6488372,37.7975476 L24.6488372,37.7975476 Z" id="Shape"></path>
            </g>
        </g>
    </g>
</svg>