<svg xmlns="http://www.w3.org/2000/svg" xmlns:xlink="http://www.w3.org/1999/xlink" width="120" height="106.074" viewBox="0 0 120 106.074"><defs><clipPath id="a"><rect width="120" height="106.074" fill="none"/></clipPath></defs><g transform="translate(-527 -174)"><g transform="translate(527 174)"><g clip-path="url(#a)"><path d="M570.5,241.155a3.783,3.783,0,0,1-1.8.416,3.934,3.934,0,0,1-3.479-2.082l-.282-.55-10.971-23.9a1.81,1.81,0,0,1-.134-.832,1.9,1.9,0,0,1,1.947-1.948,2.206,2.206,0,0,1,1.249.416l12.918,9.172a6.716,6.716,0,0,0,3.33.967,5.484,5.484,0,0,0,2.082-.416l60.577-26.951c-10.837-12.784-28.751-21.124-49.042-21.124-33.062,0-60.013,22.373-60.013,50.009,0,15,8.057,28.616,20.694,37.788a4.1,4.1,0,0,1,1.665,3.2,3.827,3.827,0,0,1-.282,1.249c-.967,3.747-2.645,9.87-2.645,10.139a5.084,5.084,0,0,0-.283,1.53,1.9,1.9,0,0,0,1.948,1.947,1.574,1.574,0,0,0,1.115-.416l13.052-7.641a6.629,6.629,0,0,1,3.2-.967,7.615,7.615,0,0,1,1.8.282,69.762,69.762,0,0,0,19.593,2.78c33.062,0,60.013-22.373,60.013-50.009a43.922,43.922,0,0,0-6.808-23.2l-69.024,39.87Zm0,0" transform="translate(-526.9 -174.266)" fill="#09bb07"/></g></g></g></svg>