<svg xmlns="http://www.w3.org/2000/svg" xmlns:xlink="http://www.w3.org/1999/xlink" width="36" height="36" viewBox="0 0 36 36"><defs><clipPath id="a"><rect width="36" height="36" transform="translate(0 0)" fill="#1779ff"/></clipPath></defs><g transform="translate(97.911 1010.303)"><g transform="translate(-97.911 -1010.303)" clip-path="url(#a)"><g transform="translate(0.099 0.099)"><path d="M-76.2-986.5a18.8,18.8,0,0,1-4.733,3.826,11.809,11.809,0,0,1-8.105,1.177c-2.973-.72-5.079-2.666-4.719-6.261s4.115-4.83,7.2-4.83,8.945,2.044,8.945,2.044.493-1.129.969-2.422a11.976,11.976,0,0,0,.613-2.324H-88.494v-1.284h6.053v-2.448l-7.546.058v-1.613h7.55v-3.675h3.964v3.675h8.092v1.613l-8.092.058v2.28l6.679.058a16.353,16.353,0,0,1-.964,3.608,17.725,17.725,0,0,1-1.64,3.515l12.015,4.039a68.467,68.467,0,0,0,.315-6.955,58.433,58.433,0,0,0-.538-8.661c-.42-2.574-1.123-4.656-2.6-6.1-1.446-1.478-3.528-2.18-6.1-2.6a58.4,58.4,0,0,0-8.66-.538,58.415,58.415,0,0,0-8.661.538c-2.574.42-4.656,1.123-6.1,2.6-1.478,1.446-2.18,3.528-2.6,6.1a58.416,58.416,0,0,0-.538,8.66,58.426,58.426,0,0,0,.538,8.661c.42,2.574,1.123,4.656,2.6,6.1,1.446,1.478,3.528,2.18,6.1,2.6a58.421,58.421,0,0,0,8.66.538A58.432,58.432,0,0,0-71.309-975c2.574-.42,4.656-1.123,6.1-2.6a7.612,7.612,0,0,0,1.733-2.72Z" transform="translate(97.87 1010.261)" fill="#1779ff"/><path d="M6.208-648.367c-3.715.244-4.626,1.924-4.626,3.466s.915,3.688,5.288,3.688,8.079-4.519,8.079-4.519S9.927-648.607,6.208-648.367Z" transform="translate(3.813 668.012)" fill="#1779ff"/></g></g></g></svg>