<svg id="图层_1" data-name="图层 1" xmlns="http://www.w3.org/2000/svg" viewBox="0 0 166.68 59.82"><defs><style>.cls-1{fill:#231815;}.cls-1,.cls-2{fill-rule:evenodd;}.cls-2{fill:#009fe8;}</style></defs><title>alipay</title><path class="cls-1" d="M69.78,9.07H81.21V5.47a1.18,1.18,0,0,1,1.18-1.18h4.36a1.18,1.18,0,0,1,1.18,1.18v3.6H99.35a.55.55,0,0,1,.55.55v1.24a.55.55,0,0,1-.55.55H87.92v3.64h8.92l.12,0,1.19,0s-2.35,7.37-10.6,13.78a36.56,36.56,0,0,0,12.29,5.32v2.68A49,49,0,0,1,84.6,30.93a44.83,44.83,0,0,1-15,5.93l-.06-2.47c0-.17,7.25-2.19,12.16-5.36a33.87,33.87,0,0,1-8.88-9.21h5.31a33.6,33.6,0,0,0,6.47,6.84,37.8,37.8,0,0,0,6.81-9.24H71.83a.55.55,0,0,1-.55-.55V15.62a.55.55,0,0,1,.55-.55h9.38V11.42H69.78a.55.55,0,0,1-.55-.55V9.62A.55.55,0,0,1,69.78,9.07Z"/><path class="cls-1" d="M110.91,14.06V36a.46.46,0,0,1-.46.46h-4.31a.46.46,0,0,1-.46-.46V33.39c0-4.72,0-9.46,0-14.19H100.6l6.82-14.48h5.64l-4.44,9.38,2.29,0Zm2.53-3.42h12.87q0-2.29,0-4.58a.77.77,0,0,1,.76-.76h3.71a.77.77,0,0,1,.76.76v4.58h2.07A.38.38,0,0,1,134,11v1.31a.38.38,0,0,1-.38.38h-2.07v17l.06,0v4.23c0,2.15-2.67,1.93-2.67,1.93l-6.35.15V33.9s2.38.27,3.23-.35.54-1.17.54-1.78c0-6.33,0-12.7,0-19.06H113.45a.38.38,0,0,1-.38-.38V11a.38.38,0,0,1,.38-.38Zm1.67,5.55a.23.23,0,0,0-.22.34l3.6,9.84a.54.54,0,0,0,.46.34h4.58a.23.23,0,0,0,.22-.34l-3.6-9.84a.54.54,0,0,0-.46-.34Z"/><path class="cls-1" d="M138,7.79h11.06V4.85a.39.39,0,0,1,.41-.36h5.38a.39.39,0,0,1,.41.36V7.79h10.8a.39.39,0,0,1,.39.39v4.57a.39.39,0,0,1-.39.39H161a.39.39,0,0,1-.39-.39v-3H143.48v3a.39.39,0,0,1-.39.39H138a.39.39,0,0,1-.39-.39V8.18a.39.39,0,0,1,.39-.39ZM155.2,17v4.78h11.06a.38.38,0,0,1,.38.38v1.31a.38.38,0,0,1-.38.38H155.2v9.63H161l-1.5-4.45c-.06-.19,0-.34.22-.34h4.58a.53.53,0,0,1,.46.34l1.91,5.66,0,.07a.27.27,0,0,1,0,.25v.16a.38.38,0,0,1-.38.38H138.12a.38.38,0,0,1-.38-.38V33.9a.38.38,0,0,1,.38-.38h11V23.89h-11a.38.38,0,0,1-.38-.38V22.2a.38.38,0,0,1,.38-.38h11V17h-11a.38.38,0,0,1-.38-.38V15.35a.38.38,0,0,1,.38-.38h28.13a.38.38,0,0,1,.38.38v1.31a.38.38,0,0,1-.38.38Z"/><path class="cls-1" d="M84.76,54a1.34,1.34,0,0,1,.09.37.25.25,0,0,1-.08.21.55.55,0,0,1-.29.1l-.54,0-.54,0a1.5,1.5,0,0,1-.31-.05.34.34,0,0,1-.15-.1.88.88,0,0,1-.09-.16l-1.22-3.3H75.73l-1.16,3.26a.56.56,0,0,1-.09.16.42.42,0,0,1-.16.12,1.11,1.11,0,0,1-.3.07l-.5,0a4,4,0,0,1-.52,0,.52.52,0,0,1-.28-.1.25.25,0,0,1-.08-.21,1.22,1.22,0,0,1,.09-.37L77.5,41.38a.53.53,0,0,1,.12-.19.47.47,0,0,1,.21-.11,1.54,1.54,0,0,1,.35-.06l.54,0,.58,0a1.69,1.69,0,0,1,.37.06.49.49,0,0,1,.22.12.52.52,0,0,1,.12.19L84.76,54Zm-6.1-11.11h0l-2.44,6.76h4.93l-2.48-6.76Zm22.29,11a2.31,2.31,0,0,1,0,.35.82.82,0,0,1-.07.24.41.41,0,0,1-.12.15.3.3,0,0,1-.17,0H94.29a.8.8,0,0,1-.47-.16.66.66,0,0,1-.22-.57V41.34a.25.25,0,0,1,0-.15.27.27,0,0,1,.15-.1,1.68,1.68,0,0,1,.3-.06,3.22,3.22,0,0,1,.45,0A3.15,3.15,0,0,1,95,41a1.62,1.62,0,0,1,.29.06.29.29,0,0,1,.15.1.25.25,0,0,1,0,.15V53.05h5.08a.3.3,0,0,1,.17.05.37.37,0,0,1,.12.14.66.66,0,0,1,.07.24,2.4,2.4,0,0,1,0,.35Zm10.43.51a.25.25,0,0,1,0,.15.29.29,0,0,1-.15.1,1.62,1.62,0,0,1-.29.06,3.1,3.1,0,0,1-.45,0,3.16,3.16,0,0,1-.45,0,1.68,1.68,0,0,1-.3-.06.27.27,0,0,1-.15-.1.25.25,0,0,1,0-.15v-13a.23.23,0,0,1,0-.15.34.34,0,0,1,.16-.1L110,41a3,3,0,0,1,.43,0,3.15,3.15,0,0,1,.45,0,1.62,1.62,0,0,1,.29.06.29.29,0,0,1,.15.1.25.25,0,0,1,0,.15v13ZM130.32,45a4.56,4.56,0,0,1-.35,1.83,3.89,3.89,0,0,1-1,1.39,4.58,4.58,0,0,1-1.6.89,7.26,7.26,0,0,1-2.26.31H123.5v4.88a.26.26,0,0,1,0,.15.34.34,0,0,1-.15.1,1.57,1.57,0,0,1-.29.06,3.1,3.1,0,0,1-.45,0,3.19,3.19,0,0,1-.46,0,1.65,1.65,0,0,1-.29-.06.27.27,0,0,1-.15-.1.25.25,0,0,1,0-.15V41.84a.71.71,0,0,1,.23-.6.83.83,0,0,1,.52-.18h3c.31,0,.6,0,.88,0a9,9,0,0,1,1,.16,4.36,4.36,0,0,1,1.17.45,3.76,3.76,0,0,1,1,.81,3.46,3.46,0,0,1,.64,1.12,4.16,4.16,0,0,1,.22,1.4Zm-2,.15A2.68,2.68,0,0,0,128,43.8a2.18,2.18,0,0,0-.8-.83,2.69,2.69,0,0,0-1-.34,6.78,6.78,0,0,0-1-.08H123.5V48h1.7a4.12,4.12,0,0,0,1.42-.21,2.66,2.66,0,0,0,.95-.58,2.41,2.41,0,0,0,.58-.89,3.13,3.13,0,0,0,.2-1.13ZM148.63,54a1.34,1.34,0,0,1,.09.37.25.25,0,0,1-.08.21.55.55,0,0,1-.29.1l-.54,0-.54,0a1.51,1.51,0,0,1-.31-.05.35.35,0,0,1-.15-.1.89.89,0,0,1-.09-.16l-1.22-3.3h-5.89l-1.16,3.26a.56.56,0,0,1-.09.16.43.43,0,0,1-.16.12,1.11,1.11,0,0,1-.3.07l-.5,0a4,4,0,0,1-.52,0,.52.52,0,0,1-.28-.1.25.25,0,0,1-.08-.21,1.23,1.23,0,0,1,.09-.37l4.75-12.58a.53.53,0,0,1,.12-.19.47.47,0,0,1,.21-.11A1.54,1.54,0,0,1,142,41l.54,0,.58,0a1.69,1.69,0,0,1,.37.06.49.49,0,0,1,.22.12.51.51,0,0,1,.12.19L148.63,54Zm-6.1-11.11h0l-2.44,6.76H145l-2.48-6.76Zm17.82,6.48v5a.25.25,0,0,1,0,.15.29.29,0,0,1-.15.1,1.68,1.68,0,0,1-.3.06,3.16,3.16,0,0,1-.45,0,3.2,3.2,0,0,1-.46,0l-.3-.06a.3.3,0,0,1-.16-.1.25.25,0,0,1,0-.15v-5l-4-7.64a1.59,1.59,0,0,1-.15-.38.2.2,0,0,1,.06-.21.53.53,0,0,1,.3-.1l.58,0,.53,0,.32.06a.39.39,0,0,1,.18.11.73.73,0,0,1,.11.17l2,3.9c.18.37.36.76.55,1.16l.56,1.23h0c.16-.4.34-.79.52-1.19s.36-.78.54-1.16l2-3.92a.51.51,0,0,1,.09-.18.36.36,0,0,1,.16-.11A1.59,1.59,0,0,1,163,41l.47,0a5.49,5.49,0,0,1,.62,0,.62.62,0,0,1,.31.1.2.2,0,0,1,.06.21,1.44,1.44,0,0,1-.15.37Z"/><path class="cls-2" d="M11.69,0H48.13A11.73,11.73,0,0,1,59.82,11.69V40.87C55.5,39.38,46.19,36.18,39.7,34a55.67,55.67,0,0,0,5.18-12.21H33.34V17.65H47.48V15.78H33.34V8.9H26.95v6.88H12.81v1.88H26.95v4.17H14.65V24H37.58a16.86,16.86,0,0,1-3.37,8.43c-11.58-3.14-20.5-5.08-26.37-.3s-2.78,20.08,14,16.68c6.24-1.26,11-5.31,14.55-9.9L59.79,49a11.73,11.73,0,0,1-11.66,10.8H11.69A11.73,11.73,0,0,1,0,48.13V11.69A11.73,11.73,0,0,1,11.69,0ZM31.3,36.61c-11-6-17.24-5.38-20.53-3.44-3.62,2.12-5.24,7.08-1.39,10.3a9.32,9.32,0,0,0,4,1.69C23.87,47.51,31.3,36.61,31.3,36.61Z"/></svg>